Patient4_TMGait_0pt6_01_left_02_GRF.mot
version=1
nRows=65
nColumns=19
inDegrees=no
endheader
time	F1x	F1y	F1z	M1x	M1y	M1z	F2x	F2y	F2z	M2x	M2y	M2z	EC1x	EC1y	EC1z	EC2x	EC2y	EC2z
2.39	-1.3973	3.0474	3.857	-2.2589	-1.7415	1.365	-14.6591	720.9192	-44.7947	312.259	47.5052	609.2075	-0.0592	0.0182	-0.0073	-0.0462	0.0165	0.9585
2.4018	-1.1307	2.6217	2.5138	-1.6874	-1.2067	1.5204	-14.7304	720.3456	-44.8256	312.2219	46.144	604.9781	-0.0592	0.0182	-0.0073	-0.0462	0.0165	0.9585
2.4136	-0.8932	2.2863	1.4563	-1.2415	-0.81115	1.6505	-14.6543	720.8545	-44.6009	312.6432	44.6098	601.277	-0.0592	0.0182	-0.0073	-0.0462	0.0165	0.9585
2.4254	-0.70282	2.0625	0.70312	-0.92992	-0.54369	1.7571	-14.4776	722.9893	-44.195	313.7391	43.0621	598.7468	-0.0592	0.0182	-0.0073	-0.0462	0.0165	0.9585
2.4371	-0.56701	1.945	0.21614	-0.73755	-0.37566	1.8506	-14.2347	727.0663	-43.7056	315.6317	41.6099	597.7715	-0.0592	0.0182	-0.0073	-0.0462	0.0165	0.9585
2.4489	-0.4798	1.9216	-0.057415	-0.64128	-0.28453	1.9383	-13.939	733.0411	-43.2377	318.2876	40.3231	598.3904	-0.0592	0.0182	-0.0073	-0.0462	0.0165	0.9585
2.4607	-0.44413	1.9527	-0.18265	-0.6098	-0.24708	2.0125	-13.5696	740.4681	-42.8883	321.5014	39.2372	600.2691	-0.0592	0.0182	-0.0073	-0.0462	0.0165	0.9585
2.4725	-0.45365	2.0028	-0.21262	-0.61582	-0.24929	2.0694	-13.0907	748.6032	-42.7267	324.9406	38.3563	602.8081	-0.0592	0.0182	-0.0073	-0.0462	0.0165	0.9585
2.4843	-0.52067	2.0256	-0.19291	-0.6294	-0.28265	2.091	-12.4403	756.5353	-42.7743	328.2074	37.6346	605.2631	-0.0592	0.0182	-0.0073	-0.0462	0.0165	0.9585
2.4961	-0.64358	1.9661	-0.14597	-0.62008	-0.34639	2.0351	-11.552	763.3352	-43.0151	330.8999	37.0006	606.8888	-0.0592	0.0182	-0.0073	-0.0462	0.0165	0.9585
2.5079	-0.82247	1.7728	-0.087189	-0.56298	-0.43741	1.8569	-10.3599	768.1573	-43.3859	332.6575	36.3521	607.0125	-0.0592	0.0182	-0.0073	-0.0462	0.0165	0.9585
2.5196	-1.045	1.376	-0.014783	-0.43005	-0.55881	1.4829	-8.8183	770.3661	-43.7969	333.2144	35.5822	605.1458	-0.0592	0.0182	-0.0073	-0.0462	0.0165	0.9585
2.5314	-1.2845	0.72508	0.066729	-0.19939	-0.69933	0.85444	-6.91	769.6228	-44.1556	332.4323	34.6037	601.0294	-0.0592	0.0182	-0.0073	-0.0462	0.0165	0.9585
2.5432	-1.49	-0.22645	0.15886	0.14646	-0.84079	-0.082936	-4.6759	765.8697	-44.4317	330.2924	33.4076	594.624	-0.0592	0.0182	-0.0073	-0.0462	0.0165	0.9585
2.555	-1.5831	-1.4837	0.24952	0.60698	-0.94179	-1.3336	-2.1769	759.3899	-44.6703	326.9184	32.0612	586.1611	-0.0592	0.0182	-0.0073	-0.0462	0.0165	0.9585
2.5668	-1.4434	-2.9813	0.32382	1.1547	-0.94498	-2.8321	0.50086	750.8341	-44.9505	322.5922	30.669	576.1526	-0.0592	0.0182	-0.0073	-0.0462	0.0165	0.9585
2.5786	-0.91574	-4.5294	0.34785	1.7172	-0.76388	-4.3844	3.2669	741.1541	-45.3629	317.7285	29.3476	565.3341	-0.0592	0.0182	-0.0073	-0.0462	0.0165	0.9585
2.5904	0.19271	-5.761	0.27408	2.1575	-0.28416	-5.6338	6.0327	731.4528	-45.9599	312.8114	28.1826	554.5578	-0.0592	0.0182	-0.0073	-0.0462	0.0165	0.9585
2.6021	2.0831	-6.0616	0.041007	2.2522	0.62152	-5.9915	8.7334	722.7842	-46.7636	308.3075	27.2282	544.6319	-0.0592	0.0182	-0.0073	-0.0462	0.0165	0.9585
2.6139	4.9225	-4.5356	-0.42793	1.6793	2.0821	-4.612	11.3561	715.9881	-47.755	304.592	26.4852	536.1827	-0.0592	0.0182	-0.0073	-0.0462	0.0165	0.9585
2.6257	8.7764	-0.0071197	-1.2106	0.01959	4.1938	-0.37561	13.9179	711.5656	-48.9013	301.8912	25.9254	529.5749	-0.0592	0.0182	-0.0073	-0.0462	0.0165	0.9585
2.6375	13.4944	8.9217	-2.3626	-3.2211	6.9623	8.0504	16.4698	709.5647	-50.1538	300.2346	25.493	524.8309	-0.0592	0.0182	-0.0073	-0.0462	0.0165	0.9585
2.6493	18.5862	23.6766	-3.8958	-8.5463	10.225	22.0452	19.0758	709.5625	-51.436	299.4484	25.1031	521.644	-0.0592	0.0182	-0.0073	-0.0462	0.0165	0.9585
2.6611	23.041	45.3735	-5.7209	-16.3516	13.5348	42.7134	21.7983	710.6624	-52.6343	299.1614	24.6435	519.3695	-0.0592	0.0182	-0.0073	-0.0462	0.0165	0.9585
2.6729	25.2181	74.3309	-7.5992	-26.7499	16.0693	70.4154	24.6656	711.5234	-53.585	298.8204	23.985	517.0505	-0.0592	0.0182	-0.0073	-0.0462	0.0165	0.9585
2.6846	23.3548	110.0188	-9.1035	-39.5465	16.7957	104.7498	27.6788	710.4682	-54.1039	297.7373	23.0029	513.496	-0.0592	0.0182	-0.0073	-0.0462	0.0165	0.9585
2.6964	17.1725	151.9069	-9.8781	-54.531	15.2658	145.2857	30.7963	705.6926	-53.9943	295.1749	21.5834	507.4391	-0.0592	0.0182	-0.0073	-0.0462	0.0165	0.9585
2.7082	8.1182	199.4021	-9.6002	-71.4379	11.6641	191.4301	33.9309	695.4278	-53.0869	290.4101	19.6524	497.64	-0.0592	0.0182	-0.0073	-0.0462	0.0165	0.9585
2.72	-2.17	250.0019	-7.7135	-89.3044	6.0358	240.5843	36.9169	678.0311	-51.241	282.7696	17.1873	482.9786	-0.0592	0.0182	-0.0073	-0.0462	0.0165	0.9585
2.7318	-12.369	299.2186	-3.5693	-106.4983	-1.737	288.158	39.5287	652.0932	-48.3433	271.6818	14.2206	462.5018	-0.0592	0.0182	-0.0073	-0.0462	0.0165	0.9585
2.7436	-21.385	343.773	2.3577	-121.8702	-10.7541	330.7963	41.4713	616.7877	-44.3342	256.8053	10.844	435.6982	-0.0592	0.0182	-0.0073	-0.0462	0.0165	0.9585
2.7554	-28.7411	382.8755	9.3455	-135.1718	-20.0959	367.6308	42.4537	572.0885	-39.3383	238.1161	7.2653	402.6143	-0.0592	0.0182	-0.0073	-0.0462	0.0165	0.9585
2.7671	-34.3753	417.6136	16.6792	-146.8235	-29.0239	399.6714	42.2229	518.8482	-33.6652	215.9396	3.7885	363.9196	-0.0592	0.0182	-0.0073	-0.0462	0.0165	0.9585
2.7789	-38.3859	449.7819	23.7447	-157.4898	-36.9811	428.6259	40.5955	458.7094	-27.689	190.928	0.7219	320.8035	-0.0592	0.0182	-0.0073	-0.0462	0.0165	0.9585
2.7907	-40.9408	480.9881	30.1613	-167.7625	-43.6764	456.073	37.4866	394.0196	-21.7915	164.029	-1.6622	274.9185	-0.0592	0.0182	-0.0073	-0.0462	0.0165	0.9585
2.8025	-42.1419	512.2783	35.5973	-178.0317	-48.8662	483.0309	32.9868	327.6544	-16.284	136.4215	-3.2153	228.2391	-0.0592	0.0182	-0.0073	-0.0462	0.0165	0.9585
2.8143	-42.1734	544.1488	40.0373	-188.4781	-52.6383	510.0476	27.3833	262.7691	-11.4373	109.4119	-3.8925	182.9045	-0.0592	0.0182	-0.0073	-0.0462	0.0165	0.9585
2.8261	-41.2413	576.5647	43.5134	-199.098	-55.1268	537.1272	21.183	202.4296	-7.4101	84.2778	-3.8201	140.9483	-0.0592	0.0182	-0.0073	-0.0462	0.0165	0.9585
2.8379	-39.6557	609.0917	46.3442	-209.739	-56.7575	563.9779	15.0173	149.1177	-4.2847	62.0583	-3.2178	103.9834	-0.0592	0.0182	-0.0073	-0.0462	0.0165	0.9585
2.8496	-37.7171	641.0667	48.7099	-220.1846	-57.8119	590.0463	9.4898	104.3555	-2.0241	43.3979	-2.3631	72.9685	-0.0592	0.0182	-0.0073	-0.0462	0.0165	0.9585
2.8614	-35.7388	671.7757	50.8642	-230.2033	-58.6404	614.755	4.9739	68.6164	-0.52749	28.5022	-1.4675	48.1911	-0.0592	0.0182	-0.0073	-0.0462	0.0165	0.9585
2.8732	-33.8808	700.55	52.7962	-239.6046	-59.296	637.5145	1.623	41.4981	0.36315	17.2103	-0.68467	29.3565	-0.0592	0.0182	-0.0073	-0.0462	0.0165	0.9585
2.885	-32.2295	726.8888	54.3863	-248.2559	-59.7096	657.9057	-0.60315	22.0706	0.79331	9.1309	-0.078472	15.8439	-0.0592	0.0182	-0.0073	-0.0462	0.0165	0.9585
2.8968	-30.7489	750.3024	55.4481	-256.0248	-59.7091	675.488	-1.8207	9.1062	0.89108	3.7491	0.32812	6.8062	-0.0592	0.0182	-0.0073	-0.0462	0.0165	0.9585
2.9086	-29.3372	770.2113	55.9104	-262.7231	-59.1952	689.7658	-2.2396	1.2998	0.77482	0.51388	0.55096	1.3567	-0.0592	0.0182	-0.0073	-0.0462	0.0165	0.9585
2.9204	-27.8284	785.9176	55.9256	-268.0973	-58.2429	700.118	-2.1402	-2.6634	0.55664	-1.1246	0.63728	-1.4236	-0.0592	0.0182	-0.0073	-0.0462	0.0165	0.9585
2.9321	-26.0874	796.8226	55.6875	-271.9103	-56.9681	706.0274	-1.7858	-3.999	0.32451	-1.6745	0.63096	-2.3654	-0.0592	0.0182	-0.0073	-0.0462	0.0165	0.9585
2.9439	-23.9891	802.7111	55.408	-274.0503	-55.5208	707.3289	-1.3317	-3.7493	0.10816	-1.5677	0.57987	-2.1976	-0.0592	0.0182	-0.0073	-0.0462	0.0165	0.9585
2.9557	-21.5392	803.9076	55.104	-274.5986	-53.9165	704.3539	-0.897	-2.6802	-0.060294	-1.1241	0.50534	-1.4458	-0.0592	0.0182	-0.0073	-0.0462	0.0165	0.9585
2.9675	-18.7812	801.2097	54.7785	-273.8066	-52.1853	697.854	-0.52386	-1.3275	-0.18593	-0.56563	0.43306	-0.49432	-0.0592	0.0182	-0.0073	-0.0462	0.0165	0.9585
2.9793	-15.82	795.7249	54.3571	-272.0414	-50.2951	688.8681	-0.24703	-0.0029913	-0.26085	-0.021727	0.36348	0.45019	-0.0592	0.0182	-0.0073	-0.0462	0.0165	0.9585
2.9911	-12.7304	788.6424	53.8823	-269.702	-48.3157	678.4599	-0.057732	1.1203	-0.30234	0.43847	0.30798	1.2619	-0.0592	0.0182	-0.0073	-0.0462	0.0165	0.9585
3.0029	-9.607	781.0713	53.3925	-267.1608	-46.3075	667.6044	0.051766	1.9942	-0.31243	0.79455	0.26112	1.9142	-0.0592	0.0182	-0.0073	-0.0462	0.0165	0.9585
3.0146	-6.5205	773.8773	52.9618	-264.7079	-44.3648	657.0593	0.10947	2.6129	-0.30732	1.0477	0.22494	2.397	-0.0592	0.0182	-0.0073	-0.0462	0.0165	0.9585
3.0264	-3.5766	767.6162	52.626	-262.5316	-42.5554	647.3266	0.12418	3.017	-0.28841	1.2149	0.19359	2.7422	-0.0592	0.0182	-0.0073	-0.0462	0.0165	0.9585
3.0382	-0.82728	762.5436	52.3815	-260.72	-40.904	638.6465	0.12249	3.2596	-0.26535	1.3184	0.16707	2.969	-0.0592	0.0182	-0.0073	-0.0462	0.0165	0.9585
3.05	1.6674	758.6314	52.2356	-259.2647	-39.4393	631.0172	0.1094	3.399	-0.244	1.382	0.14644	3.1151	-0.0592	0.0182	-0.0073	-0.0462	0.0165	0.9585
3.0618	3.8909	755.6233	52.1616	-258.0816	-38.1449	624.2311	0.10246	3.4696	-0.23288	1.422	0.1359	3.1886	-0.0592	0.0182	-0.0073	-0.0462	0.0165	0.9585
3.0736	5.8366	753.0948	52.1827	-257.0296	-37.0395	617.9463	0.087556	3.497	-0.23673	1.4486	0.14496	3.2154	-0.0592	0.0182	-0.0073	-0.0462	0.0165	0.9585
3.0854	7.5546	750.5768	52.2626	-255.9577	-36.0729	611.7491	0.063025	3.4734	-0.25188	1.4584	0.17248	3.1807	-0.0592	0.0182	-0.0073	-0.0462	0.0165	0.9585
3.0971	9.1075	747.6671	52.4159	-254.7386	-35.238	605.2899	0.016398	3.3854	-0.28644	1.4419	0.22955	3.0752	-0.0592	0.0182	-0.0073	-0.0462	0.0165	0.9585
3.1089	10.6288	744.1299	52.5962	-253.3075	-34.4515	598.3386	-0.049774	3.1738	-0.33041	1.372	0.30616	2.8451	-0.0592	0.0182	-0.0073	-0.0462	0.0165	0.9585
3.1207	12.2356	739.967	52.8058	-251.674	-33.674	590.8672	-0.14511	2.7718	-0.38852	1.2164	0.40269	2.4442	-0.0592	0.0182	-0.0073	-0.0462	0.0165	0.9585
3.1325	14.0683	735.4144	52.9922	-249.922	-32.8128	583.0206	-0.25561	2.0897	-0.45208	0.93624	0.50337	1.7847	-0.0592	0.0182	-0.0073	-0.0462	0.0165	0.9585
3.1443	16.2155	730.9115	53.1663	-248.1907	-31.8433	575.1342	-0.3738	1.038	-0.52472	0.49114	0.61114	0.7777	-0.0592	0.0182	-0.0073	-0.0462	0.0165	0.9585
